<svg xmlns="http://www.w3.org/2000/svg" width="1200" height="675" viewBox="0 0 1200 675"><rect width="1200" height="675" fill="#07080a"/><line x1="8" y1="52.0" x2="1104" y2="52.0" stroke="#1a1d22" stroke-width="1"/><text x="1110" y="56.0" fill="#8b8f98" font-family="monospace" font-size="11">3127.97</text><line x1="8" y1="200.8" x2="1104" y2="200.8" stroke="#1a1d22" stroke-width="1"/><text x="1110" y="204.8" fill="#8b8f98" font-family="monospace" font-size="11">2865.37</text><line x1="8" y1="349.5" x2="1104" y2="349.5" stroke="#1a1d22" stroke-width="1"/><text x="1110" y="353.5" fill="#8b8f98" font-family="monospace" font-size="11">2602.77</text><line x1="8" y1="498.3" x2="1104" y2="498.3" stroke="#1a1d22" stroke-width="1"/><text x="1110" y="502.3" fill="#8b8f98" font-family="monospace" font-size="11">2340.17</text><line x1="8" y1="647.0" x2="1104" y2="647.0" stroke="#1a1d22" stroke-width="1"/><text x="1110" y="651.0" fill="#8b8f98" font-family="monospace" font-size="11">2077.57</text><line x1="8.0" y1="257.1" x2="8.0" y2="274.5" stroke="#d05f5f" stroke-width="1"/><rect x="5.9" y="261.2" width="4.2" height="9.0" fill="#d05f5f"/><line x1="14.9" y1="267.2" x2="14.9" y2="279.4" stroke="#d05f5f" stroke-width="1"/><rect x="12.8" y="270.2" width="4.2" height="4.3" fill="#d05f5f"/><line x1="21.8" y1="271.0" x2="21.8" y2="282.8" stroke="#d05f5f" stroke-width="1"/><rect x="19.7" y="274.5" width="4.2" height="6.5" fill="#d05f5f"/><line x1="28.7" y1="275.9" x2="28.7" y2="288.9" stroke="#d05f5f" stroke-width="1"/><rect x="26.6" y="281.0" width="4.2" height="4.8" fill="#d05f5f"/><line x1="35.6" y1="280.8" x2="35.6" y2="289.5" stroke="#d05f5f" stroke-width="1"/><rect x="33.4" y="285.8" width="4.2" height="1.3" fill="#d05f5f"/><line x1="42.5" y1="282.6" x2="42.5" y2="296.0" stroke="#d05f5f" stroke-width="1"/><rect x="40.3" y="287.1" width="4.2" height="3.6" fill="#d05f5f"/><line x1="49.4" y1="237.4" x2="49.4" y2="296.8" stroke="#3fb68b" stroke-width="1"/><rect x="47.2" y="243.0" width="4.2" height="47.6" fill="#3fb68b"/><line x1="56.3" y1="228.2" x2="56.3" y2="246.0" stroke="#3fb68b" stroke-width="1"/><rect x="54.1" y="230.2" width="4.2" height="12.8" fill="#3fb68b"/><line x1="63.1" y1="214.4" x2="63.1" y2="235.7" stroke="#3fb68b" stroke-width="1"/><rect x="61.0" y="219.3" width="4.2" height="10.9" fill="#3fb68b"/><line x1="70.0" y1="199.5" x2="70.0" y2="221.9" stroke="#3fb68b" stroke-width="1"/><rect x="67.9" y="202.3" width="4.2" height="17.0" fill="#3fb68b"/><line x1="76.9" y1="187.0" x2="76.9" y2="205.1" stroke="#3fb68b" stroke-width="1"/><rect x="74.8" y="189.5" width="4.2" height="12.8" fill="#3fb68b"/><line x1="83.8" y1="179.2" x2="83.8" y2="194.0" stroke="#3fb68b" stroke-width="1"/><rect x="81.7" y="183.7" width="4.2" height="5.8" fill="#3fb68b"/><line x1="90.7" y1="176.9" x2="90.7" y2="187.9" stroke="#d05f5f" stroke-width="1"/><rect x="88.6" y="183.7" width="4.2" height="1.0" fill="#d05f5f"/><line x1="97.6" y1="181.2" x2="97.6" y2="200.7" stroke="#d05f5f" stroke-width="1"/><rect x="95.5" y="184.4" width="4.2" height="11.0" fill="#d05f5f"/><line x1="104.5" y1="191.2" x2="104.5" y2="224.8" stroke="#d05f5f" stroke-width="1"/><rect x="102.4" y="195.4" width="4.2" height="23.9" fill="#d05f5f"/><line x1="111.4" y1="216.5" x2="111.4" y2="246.5" stroke="#d05f5f" stroke-width="1"/><rect x="109.3" y="219.3" width="4.2" height="25.1" fill="#d05f5f"/><line x1="118.3" y1="239.4" x2="118.3" y2="283.6" stroke="#d05f5f" stroke-width="1"/><rect x="116.2" y="244.4" width="4.2" height="35.2" fill="#d05f5f"/><line x1="125.2" y1="277.6" x2="125.2" y2="315.7" stroke="#d05f5f" stroke-width="1"/><rect x="123.1" y="279.6" width="4.2" height="32.6" fill="#d05f5f"/><line x1="132.1" y1="307.8" x2="132.1" y2="342.5" stroke="#d05f5f" stroke-width="1"/><rect x="130.0" y="312.2" width="4.2" height="28.5" fill="#d05f5f"/><line x1="139.0" y1="336.0" x2="139.0" y2="371.9" stroke="#d05f5f" stroke-width="1"/><rect x="136.8" y="340.7" width="4.2" height="28.6" fill="#d05f5f"/><line x1="145.9" y1="366.6" x2="145.9" y2="400.5" stroke="#d05f5f" stroke-width="1"/><rect x="143.7" y="369.3" width="4.2" height="27.1" fill="#d05f5f"/><line x1="152.8" y1="394.6" x2="152.8" y2="425.4" stroke="#d05f5f" stroke-width="1"/><rect x="150.6" y="396.4" width="4.2" height="27.1" fill="#d05f5f"/><line x1="159.6" y1="419.4" x2="159.6" y2="456.4" stroke="#d05f5f" stroke-width="1"/><rect x="157.5" y="423.5" width="4.2" height="28.3" fill="#d05f5f"/><line x1="166.5" y1="447.8" x2="166.5" y2="481.9" stroke="#d05f5f" stroke-width="1"/><rect x="164.4" y="451.8" width="4.2" height="27.4" fill="#d05f5f"/><line x1="173.4" y1="474.7" x2="173.4" y2="508.5" stroke="#d05f5f" stroke-width="1"/><rect x="171.3" y="479.2" width="4.2" height="26.9" fill="#d05f5f"/><line x1="180.3" y1="503.5" x2="180.3" y2="528.2" stroke="#d05f5f" stroke-width="1"/><rect x="178.2" y="506.2" width="4.2" height="18.6" fill="#d05f5f"/><line x1="187.2" y1="522.1" x2="187.2" y2="533.5" stroke="#d05f5f" stroke-width="1"/><rect x="185.1" y="524.8" width="4.2" height="6.0" fill="#d05f5f"/><line x1="194.1" y1="525.5" x2="194.1" y2="534.5" stroke="#3fb68b" stroke-width="1"/><rect x="192.0" y="529.8" width="4.2" height="1.0" fill="#3fb68b"/><line x1="201.0" y1="511.8" x2="201.0" y2="533.8" stroke="#3fb68b" stroke-width="1"/><rect x="198.9" y="513.2" width="4.2" height="16.7" fill="#3fb68b"/><line x1="207.9" y1="487.2" x2="207.9" y2="516.8" stroke="#3fb68b" stroke-width="1"/><rect x="205.8" y="490.2" width="4.2" height="23.0" fill="#3fb68b"/><line x1="214.8" y1="456.3" x2="214.8" y2="492.0" stroke="#3fb68b" stroke-width="1"/><rect x="212.7" y="460.7" width="4.2" height="29.5" fill="#3fb68b"/><line x1="221.7" y1="424.9" x2="221.7" y2="464.5" stroke="#3fb68b" stroke-width="1"/><rect x="219.6" y="426.7" width="4.2" height="34.0" fill="#3fb68b"/><line x1="228.6" y1="385.6" x2="228.6" y2="428.3" stroke="#3fb68b" stroke-width="1"/><rect x="226.5" y="390.3" width="4.2" height="36.5" fill="#3fb68b"/><line x1="235.5" y1="356.9" x2="235.5" y2="393.0" stroke="#3fb68b" stroke-width="1"/><rect x="233.3" y="361.5" width="4.2" height="28.8" fill="#3fb68b"/><line x1="242.4" y1="337.3" x2="242.4" y2="364.0" stroke="#3fb68b" stroke-width="1"/><rect x="240.2" y="340.5" width="4.2" height="21.0" fill="#3fb68b"/><line x1="249.3" y1="323.6" x2="249.3" y2="342.1" stroke="#3fb68b" stroke-width="1"/><rect x="247.1" y="326.2" width="4.2" height="14.3" fill="#3fb68b"/><line x1="256.2" y1="308.7" x2="256.2" y2="329.9" stroke="#3fb68b" stroke-width="1"/><rect x="254.0" y="313.4" width="4.2" height="12.9" fill="#3fb68b"/><line x1="263.0" y1="297.6" x2="263.0" y2="316.6" stroke="#3fb68b" stroke-width="1"/><rect x="260.9" y="300.5" width="4.2" height="12.9" fill="#3fb68b"/><line x1="269.9" y1="289.7" x2="269.9" y2="304.7" stroke="#3fb68b" stroke-width="1"/><rect x="267.8" y="293.2" width="4.2" height="7.3" fill="#3fb68b"/><line x1="276.8" y1="279.0" x2="276.8" y2="295.2" stroke="#3fb68b" stroke-width="1"/><rect x="274.7" y="282.4" width="4.2" height="10.7" fill="#3fb68b"/><line x1="283.7" y1="268.1" x2="283.7" y2="284.4" stroke="#3fb68b" stroke-width="1"/><rect x="281.6" y="272.3" width="4.2" height="10.2" fill="#3fb68b"/><line x1="290.6" y1="266.8" x2="290.6" y2="278.4" stroke="#3fb68b" stroke-width="1"/><rect x="288.5" y="271.6" width="4.2" height="1.0" fill="#3fb68b"/><line x1="297.5" y1="268.1" x2="297.5" y2="277.5" stroke="#d05f5f" stroke-width="1"/><rect x="295.4" y="271.6" width="4.2" height="1.6" fill="#d05f5f"/><line x1="304.4" y1="269.4" x2="304.4" y2="288.4" stroke="#d05f5f" stroke-width="1"/><rect x="302.3" y="273.2" width="4.2" height="13.1" fill="#d05f5f"/><line x1="311.3" y1="284.4" x2="311.3" y2="304.5" stroke="#d05f5f" stroke-width="1"/><rect x="309.2" y="286.3" width="4.2" height="16.4" fill="#d05f5f"/><line x1="318.2" y1="299.6" x2="318.2" y2="325.5" stroke="#d05f5f" stroke-width="1"/><rect x="316.1" y="302.7" width="4.2" height="20.8" fill="#d05f5f"/><line x1="325.1" y1="319.7" x2="325.1" y2="347.9" stroke="#d05f5f" stroke-width="1"/><rect x="323.0" y="323.5" width="4.2" height="19.5" fill="#d05f5f"/><line x1="332.0" y1="338.3" x2="332.0" y2="359.7" stroke="#d05f5f" stroke-width="1"/><rect x="329.9" y="343.0" width="4.2" height="12.1" fill="#d05f5f"/><line x1="338.9" y1="348.9" x2="338.9" y2="359.2" stroke="#3fb68b" stroke-width="1"/><rect x="336.7" y="351.6" width="4.2" height="3.5" fill="#3fb68b"/><line x1="345.8" y1="346.1" x2="345.8" y2="397.3" stroke="#d05f5f" stroke-width="1"/><rect x="343.6" y="351.6" width="4.2" height="39.1" fill="#d05f5f"/><line x1="352.7" y1="376.1" x2="352.7" y2="393.1" stroke="#3fb68b" stroke-width="1"/><rect x="350.5" y="378.3" width="4.2" height="12.4" fill="#3fb68b"/><line x1="359.5" y1="351.5" x2="359.5" y2="380.6" stroke="#3fb68b" stroke-width="1"/><rect x="357.4" y="354.3" width="4.2" height="24.1" fill="#3fb68b"/><line x1="366.4" y1="322.9" x2="366.4" y2="355.8" stroke="#3fb68b" stroke-width="1"/><rect x="364.3" y="326.6" width="4.2" height="27.6" fill="#3fb68b"/><line x1="373.3" y1="293.1" x2="373.3" y2="328.6" stroke="#3fb68b" stroke-width="1"/><rect x="371.2" y="297.4" width="4.2" height="29.2" fill="#3fb68b"/><line x1="380.2" y1="263.8" x2="380.2" y2="299.6" stroke="#3fb68b" stroke-width="1"/><rect x="378.1" y="267.4" width="4.2" height="30.0" fill="#3fb68b"/><line x1="387.1" y1="240.9" x2="387.1" y2="270.3" stroke="#3fb68b" stroke-width="1"/><rect x="385.0" y="243.4" width="4.2" height="23.9" fill="#3fb68b"/><line x1="394.0" y1="212.8" x2="394.0" y2="248.7" stroke="#3fb68b" stroke-width="1"/><rect x="391.9" y="218.3" width="4.2" height="25.1" fill="#3fb68b"/><line x1="400.9" y1="191.4" x2="400.9" y2="222.2" stroke="#3fb68b" stroke-width="1"/><rect x="398.8" y="194.8" width="4.2" height="23.5" fill="#3fb68b"/><line x1="407.8" y1="162.3" x2="407.8" y2="199.8" stroke="#3fb68b" stroke-width="1"/><rect x="405.7" y="166.7" width="4.2" height="28.2" fill="#3fb68b"/><line x1="414.7" y1="140.5" x2="414.7" y2="169.6" stroke="#3fb68b" stroke-width="1"/><rect x="412.6" y="144.4" width="4.2" height="22.3" fill="#3fb68b"/><line x1="421.6" y1="122.6" x2="421.6" y2="147.7" stroke="#3fb68b" stroke-width="1"/><rect x="419.5" y="127.2" width="4.2" height="17.2" fill="#3fb68b"/><line x1="428.5" y1="112.9" x2="428.5" y2="130.8" stroke="#3fb68b" stroke-width="1"/><rect x="426.4" y="115.8" width="4.2" height="11.5" fill="#3fb68b"/><line x1="435.4" y1="100.5" x2="435.4" y2="120.2" stroke="#3fb68b" stroke-width="1"/><rect x="433.2" y="107.1" width="4.2" height="8.7" fill="#3fb68b"/><line x1="442.3" y1="99.8" x2="442.3" y2="112.8" stroke="#d05f5f" stroke-width="1"/><rect x="440.1" y="107.1" width="4.2" height="2.1" fill="#d05f5f"/><line x1="449.2" y1="106.8" x2="449.2" y2="128.4" stroke="#d05f5f" stroke-width="1"/><rect x="447.0" y="109.2" width="4.2" height="17.2" fill="#d05f5f"/><line x1="456.1" y1="121.7" x2="456.1" y2="157.2" stroke="#d05f5f" stroke-width="1"/><rect x="453.9" y="126.3" width="4.2" height="27.2" fill="#d05f5f"/><line x1="462.9" y1="151.7" x2="462.9" y2="195.1" stroke="#d05f5f" stroke-width="1"/><rect x="460.8" y="153.6" width="4.2" height="38.3" fill="#d05f5f"/><line x1="469.8" y1="187.8" x2="469.8" y2="235.3" stroke="#d05f5f" stroke-width="1"/><rect x="467.7" y="191.9" width="4.2" height="39.2" fill="#d05f5f"/><line x1="476.7" y1="227.3" x2="476.7" y2="271.4" stroke="#d05f5f" stroke-width="1"/><rect x="474.6" y="231.1" width="4.2" height="35.3" fill="#d05f5f"/><line x1="483.6" y1="263.2" x2="483.6" y2="302.6" stroke="#d05f5f" stroke-width="1"/><rect x="481.5" y="266.5" width="4.2" height="32.4" fill="#d05f5f"/><line x1="490.5" y1="296.5" x2="490.5" y2="331.3" stroke="#d05f5f" stroke-width="1"/><rect x="488.4" y="298.9" width="4.2" height="30.4" fill="#d05f5f"/><line x1="497.4" y1="325.7" x2="497.4" y2="352.9" stroke="#d05f5f" stroke-width="1"/><rect x="495.3" y="329.3" width="4.2" height="19.2" fill="#d05f5f"/><line x1="504.3" y1="345.9" x2="504.3" y2="368.6" stroke="#d05f5f" stroke-width="1"/><rect x="502.2" y="348.5" width="4.2" height="18.5" fill="#d05f5f"/><line x1="511.2" y1="364.6" x2="511.2" y2="390.0" stroke="#d05f5f" stroke-width="1"/><rect x="509.1" y="367.0" width="4.2" height="20.6" fill="#d05f5f"/><line x1="518.1" y1="383.4" x2="518.1" y2="410.8" stroke="#d05f5f" stroke-width="1"/><rect x="516.0" y="387.5" width="4.2" height="21.2" fill="#d05f5f"/><line x1="525.0" y1="404.5" x2="525.0" y2="430.4" stroke="#d05f5f" stroke-width="1"/><rect x="522.9" y="408.7" width="4.2" height="18.2" fill="#d05f5f"/><line x1="531.9" y1="422.8" x2="531.9" y2="442.1" stroke="#d05f5f" stroke-width="1"/><rect x="529.8" y="427.0" width="4.2" height="12.9" fill="#d05f5f"/><line x1="538.8" y1="436.5" x2="538.8" y2="453.0" stroke="#d05f5f" stroke-width="1"/><rect x="536.6" y="439.8" width="4.2" height="9.0" fill="#d05f5f"/><line x1="545.7" y1="444.3" x2="545.7" y2="453.1" stroke="#d05f5f" stroke-width="1"/><rect x="543.5" y="448.8" width="4.2" height="1.3" fill="#d05f5f"/><line x1="552.6" y1="438.4" x2="552.6" y2="452.7" stroke="#3fb68b" stroke-width="1"/><rect x="550.4" y="441.3" width="4.2" height="8.8" fill="#3fb68b"/><line x1="559.4" y1="418.0" x2="559.4" y2="444.2" stroke="#3fb68b" stroke-width="1"/><rect x="557.3" y="421.8" width="4.2" height="19.5" fill="#3fb68b"/><line x1="566.3" y1="403.6" x2="566.3" y2="424.2" stroke="#3fb68b" stroke-width="1"/><rect x="564.2" y="406.3" width="4.2" height="15.5" fill="#3fb68b"/><line x1="573.2" y1="382.9" x2="573.2" y2="411.0" stroke="#3fb68b" stroke-width="1"/><rect x="571.1" y="387.4" width="4.2" height="18.9" fill="#3fb68b"/><line x1="580.1" y1="375.6" x2="580.1" y2="390.1" stroke="#3fb68b" stroke-width="1"/><rect x="578.0" y="378.7" width="4.2" height="8.7" fill="#3fb68b"/><line x1="587.0" y1="371.8" x2="587.0" y2="382.4" stroke="#3fb68b" stroke-width="1"/><rect x="584.9" y="378.1" width="4.2" height="1.0" fill="#3fb68b"/><line x1="593.9" y1="375.5" x2="593.9" y2="389.0" stroke="#d05f5f" stroke-width="1"/><rect x="591.8" y="378.1" width="4.2" height="6.6" fill="#d05f5f"/><line x1="600.8" y1="380.1" x2="600.8" y2="408.6" stroke="#d05f5f" stroke-width="1"/><rect x="598.7" y="384.7" width="4.2" height="19.8" fill="#d05f5f"/><line x1="607.7" y1="401.9" x2="607.7" y2="431.4" stroke="#d05f5f" stroke-width="1"/><rect x="605.6" y="404.5" width="4.2" height="23.7" fill="#d05f5f"/><line x1="614.6" y1="423.5" x2="614.6" y2="456.5" stroke="#d05f5f" stroke-width="1"/><rect x="612.5" y="428.1" width="4.2" height="26.5" fill="#d05f5f"/><line x1="621.5" y1="451.0" x2="621.5" y2="481.8" stroke="#d05f5f" stroke-width="1"/><rect x="619.4" y="454.6" width="4.2" height="24.5" fill="#d05f5f"/><line x1="628.4" y1="477.6" x2="628.4" y2="504.4" stroke="#d05f5f" stroke-width="1"/><rect x="626.3" y="479.1" width="4.2" height="21.2" fill="#d05f5f"/><line x1="635.3" y1="495.8" x2="635.3" y2="519.9" stroke="#d05f5f" stroke-width="1"/><rect x="633.1" y="500.3" width="4.2" height="16.9" fill="#d05f5f"/><line x1="642.2" y1="490.3" x2="642.2" y2="533.8" stroke="#3fb68b" stroke-width="1"/><rect x="640.0" y="494.7" width="4.2" height="22.5" fill="#3fb68b"/><line x1="649.1" y1="491.1" x2="649.1" y2="520.0" stroke="#d05f5f" stroke-width="1"/><rect x="646.9" y="494.7" width="4.2" height="21.2" fill="#d05f5f"/><line x1="655.9" y1="513.8" x2="655.9" y2="544.8" stroke="#d05f5f" stroke-width="1"/><rect x="653.8" y="515.9" width="4.2" height="26.6" fill="#d05f5f"/><line x1="662.8" y1="540.4" x2="662.8" y2="566.6" stroke="#d05f5f" stroke-width="1"/><rect x="660.7" y="542.6" width="4.2" height="22.4" fill="#d05f5f"/><line x1="669.7" y1="562.1" x2="669.7" y2="585.9" stroke="#d05f5f" stroke-width="1"/><rect x="667.6" y="565.0" width="4.2" height="19.4" fill="#d05f5f"/><line x1="676.6" y1="581.6" x2="676.6" y2="601.5" stroke="#d05f5f" stroke-width="1"/><rect x="674.5" y="584.4" width="4.2" height="14.5" fill="#d05f5f"/><line x1="683.5" y1="596.4" x2="683.5" y2="605.6" stroke="#d05f5f" stroke-width="1"/><rect x="681.4" y="598.9" width="4.2" height="3.2" fill="#d05f5f"/><line x1="690.4" y1="589.6" x2="690.4" y2="606.0" stroke="#3fb68b" stroke-width="1"/><rect x="688.3" y="592.1" width="4.2" height="9.9" fill="#3fb68b"/><line x1="697.3" y1="574.9" x2="697.3" y2="596.0" stroke="#3fb68b" stroke-width="1"/><rect x="695.2" y="577.1" width="4.2" height="15.0" fill="#3fb68b"/><line x1="704.2" y1="545.7" x2="704.2" y2="580.7" stroke="#3fb68b" stroke-width="1"/><rect x="702.1" y="547.0" width="4.2" height="30.0" fill="#3fb68b"/><line x1="711.1" y1="509.6" x2="711.1" y2="550.1" stroke="#3fb68b" stroke-width="1"/><rect x="709.0" y="512.9" width="4.2" height="34.2" fill="#3fb68b"/><line x1="718.0" y1="473.6" x2="718.0" y2="516.8" stroke="#3fb68b" stroke-width="1"/><rect x="715.9" y="475.0" width="4.2" height="37.8" fill="#3fb68b"/><line x1="724.9" y1="433.2" x2="724.9" y2="479.5" stroke="#3fb68b" stroke-width="1"/><rect x="722.8" y="435.2" width="4.2" height="39.8" fill="#3fb68b"/><line x1="731.8" y1="402.0" x2="731.8" y2="438.7" stroke="#3fb68b" stroke-width="1"/><rect x="729.7" y="404.2" width="4.2" height="31.0" fill="#3fb68b"/><line x1="738.7" y1="373.1" x2="738.7" y2="406.2" stroke="#3fb68b" stroke-width="1"/><rect x="736.5" y="375.4" width="4.2" height="28.8" fill="#3fb68b"/><line x1="745.6" y1="341.0" x2="745.6" y2="377.3" stroke="#3fb68b" stroke-width="1"/><rect x="743.4" y="345.5" width="4.2" height="29.8" fill="#3fb68b"/><line x1="752.5" y1="315.0" x2="752.5" y2="347.4" stroke="#3fb68b" stroke-width="1"/><rect x="750.3" y="318.9" width="4.2" height="26.6" fill="#3fb68b"/><line x1="759.3" y1="294.8" x2="759.3" y2="321.7" stroke="#3fb68b" stroke-width="1"/><rect x="757.2" y="296.4" width="4.2" height="22.5" fill="#3fb68b"/><line x1="766.2" y1="269.7" x2="766.2" y2="301.3" stroke="#3fb68b" stroke-width="1"/><rect x="764.1" y="272.6" width="4.2" height="23.8" fill="#3fb68b"/><line x1="773.1" y1="253.9" x2="773.1" y2="277.4" stroke="#3fb68b" stroke-width="1"/><rect x="771.0" y="256.4" width="4.2" height="16.2" fill="#3fb68b"/><line x1="780.0" y1="239.2" x2="780.0" y2="259.5" stroke="#3fb68b" stroke-width="1"/><rect x="777.9" y="241.2" width="4.2" height="15.1" fill="#3fb68b"/><line x1="786.9" y1="222.3" x2="786.9" y2="244.1" stroke="#3fb68b" stroke-width="1"/><rect x="784.8" y="227.8" width="4.2" height="13.5" fill="#3fb68b"/><line x1="793.8" y1="219.0" x2="793.8" y2="231.4" stroke="#3fb68b" stroke-width="1"/><rect x="791.7" y="226.5" width="4.2" height="1.3" fill="#3fb68b"/><line x1="800.7" y1="222.4" x2="800.7" y2="246.4" stroke="#d05f5f" stroke-width="1"/><rect x="798.6" y="226.5" width="4.2" height="16.2" fill="#d05f5f"/><line x1="807.6" y1="238.1" x2="807.6" y2="263.4" stroke="#d05f5f" stroke-width="1"/><rect x="805.5" y="242.7" width="4.2" height="17.6" fill="#d05f5f"/><line x1="814.5" y1="257.2" x2="814.5" y2="285.4" stroke="#d05f5f" stroke-width="1"/><rect x="812.4" y="260.3" width="4.2" height="21.3" fill="#d05f5f"/><line x1="821.4" y1="277.7" x2="821.4" y2="308.4" stroke="#d05f5f" stroke-width="1"/><rect x="819.3" y="281.7" width="4.2" height="23.4" fill="#d05f5f"/><line x1="828.3" y1="300.1" x2="828.3" y2="319.8" stroke="#d05f5f" stroke-width="1"/><rect x="826.2" y="305.1" width="4.2" height="11.4" fill="#d05f5f"/><line x1="835.2" y1="313.2" x2="835.2" y2="333.5" stroke="#d05f5f" stroke-width="1"/><rect x="833.0" y="316.5" width="4.2" height="13.3" fill="#d05f5f"/><line x1="842.1" y1="322.9" x2="842.1" y2="335.3" stroke="#3fb68b" stroke-width="1"/><rect x="839.9" y="328.0" width="4.2" height="1.8" fill="#3fb68b"/><line x1="849.0" y1="316.5" x2="849.0" y2="330.9" stroke="#3fb68b" stroke-width="1"/><rect x="846.8" y="320.1" width="4.2" height="7.8" fill="#3fb68b"/><line x1="855.8" y1="303.3" x2="855.8" y2="322.9" stroke="#3fb68b" stroke-width="1"/><rect x="853.7" y="308.2" width="4.2" height="12.0" fill="#3fb68b"/><line x1="862.7" y1="286.2" x2="862.7" y2="311.9" stroke="#3fb68b" stroke-width="1"/><rect x="860.6" y="289.2" width="4.2" height="18.9" fill="#3fb68b"/><line x1="869.6" y1="263.2" x2="869.6" y2="292.8" stroke="#3fb68b" stroke-width="1"/><rect x="867.5" y="266.3" width="4.2" height="22.9" fill="#3fb68b"/><line x1="876.5" y1="250.0" x2="876.5" y2="268.2" stroke="#3fb68b" stroke-width="1"/><rect x="874.4" y="252.7" width="4.2" height="13.7" fill="#3fb68b"/><line x1="883.4" y1="237.6" x2="883.4" y2="255.0" stroke="#3fb68b" stroke-width="1"/><rect x="881.3" y="242.0" width="4.2" height="10.7" fill="#3fb68b"/><line x1="890.3" y1="225.5" x2="890.3" y2="244.0" stroke="#3fb68b" stroke-width="1"/><rect x="888.2" y="230.8" width="4.2" height="11.2" fill="#3fb68b"/><line x1="897.2" y1="204.7" x2="897.2" y2="233.2" stroke="#3fb68b" stroke-width="1"/><rect x="895.1" y="209.9" width="4.2" height="20.9" fill="#3fb68b"/><line x1="904.1" y1="185.0" x2="904.1" y2="212.3" stroke="#3fb68b" stroke-width="1"/><rect x="902.0" y="189.2" width="4.2" height="20.7" fill="#3fb68b"/><line x1="911.0" y1="166.2" x2="911.0" y2="191.8" stroke="#3fb68b" stroke-width="1"/><rect x="908.9" y="170.8" width="4.2" height="18.4" fill="#3fb68b"/><line x1="917.9" y1="148.2" x2="917.9" y2="176.1" stroke="#3fb68b" stroke-width="1"/><rect x="915.8" y="153.5" width="4.2" height="17.4" fill="#3fb68b"/><line x1="924.8" y1="135.0" x2="924.8" y2="157.6" stroke="#3fb68b" stroke-width="1"/><rect x="922.7" y="138.9" width="4.2" height="14.6" fill="#3fb68b"/><line x1="931.7" y1="128.4" x2="931.7" y2="143.1" stroke="#3fb68b" stroke-width="1"/><rect x="929.5" y="135.6" width="4.2" height="3.3" fill="#3fb68b"/><line x1="938.6" y1="131.2" x2="938.6" y2="146.6" stroke="#d05f5f" stroke-width="1"/><rect x="936.4" y="135.6" width="4.2" height="8.8" fill="#d05f5f"/><line x1="945.5" y1="93.0" x2="945.5" y2="149.7" stroke="#3fb68b" stroke-width="1"/><rect x="943.3" y="114.9" width="4.2" height="29.5" fill="#3fb68b"/><line x1="952.4" y1="109.5" x2="952.4" y2="151.8" stroke="#d05f5f" stroke-width="1"/><rect x="950.2" y="114.9" width="4.2" height="31.8" fill="#d05f5f"/><line x1="959.2" y1="143.8" x2="959.2" y2="189.7" stroke="#d05f5f" stroke-width="1"/><rect x="957.1" y="146.6" width="4.2" height="38.7" fill="#d05f5f"/><line x1="966.1" y1="182.6" x2="966.1" y2="228.4" stroke="#d05f5f" stroke-width="1"/><rect x="964.0" y="185.4" width="4.2" height="38.3" fill="#d05f5f"/><line x1="973.0" y1="219.2" x2="973.0" y2="269.9" stroke="#d05f5f" stroke-width="1"/><rect x="970.9" y="223.7" width="4.2" height="41.3" fill="#d05f5f"/><line x1="979.9" y1="260.6" x2="979.9" y2="306.6" stroke="#d05f5f" stroke-width="1"/><rect x="977.8" y="265.0" width="4.2" height="37.1" fill="#d05f5f"/><line x1="986.8" y1="297.6" x2="986.8" y2="335.7" stroke="#d05f5f" stroke-width="1"/><rect x="984.7" y="302.0" width="4.2" height="31.2" fill="#d05f5f"/><line x1="993.7" y1="329.8" x2="993.7" y2="367.9" stroke="#d05f5f" stroke-width="1"/><rect x="991.6" y="333.2" width="4.2" height="31.6" fill="#d05f5f"/><line x1="1000.6" y1="361.3" x2="1000.6" y2="395.6" stroke="#d05f5f" stroke-width="1"/><rect x="998.5" y="364.8" width="4.2" height="29.0" fill="#d05f5f"/><line x1="1007.5" y1="391.2" x2="1007.5" y2="422.9" stroke="#d05f5f" stroke-width="1"/><rect x="1005.4" y="393.8" width="4.2" height="26.8" fill="#d05f5f"/><line x1="1014.4" y1="417.3" x2="1014.4" y2="456.6" stroke="#d05f5f" stroke-width="1"/><rect x="1012.3" y="420.5" width="4.2" height="33.2" fill="#d05f5f"/><line x1="1021.3" y1="451.5" x2="1021.3" y2="481.3" stroke="#d05f5f" stroke-width="1"/><rect x="1019.2" y="453.7" width="4.2" height="23.6" fill="#d05f5f"/><line x1="1028.2" y1="475.0" x2="1028.2" y2="493.4" stroke="#d05f5f" stroke-width="1"/><rect x="1026.1" y="477.3" width="4.2" height="12.6" fill="#d05f5f"/><line x1="1035.1" y1="487.2" x2="1035.1" y2="500.3" stroke="#d05f5f" stroke-width="1"/><rect x="1032.9" y="489.9" width="4.2" height="7.9" fill="#d05f5f"/><line x1="1042.0" y1="492.7" x2="1042.0" y2="502.9" stroke="#3fb68b" stroke-width="1"/><rect x="1039.8" y="496.3" width="4.2" height="1.5" fill="#3fb68b"/><line x1="1048.9" y1="477.4" x2="1048.9" y2="500.6" stroke="#3fb68b" stroke-width="1"/><rect x="1046.7" y="481.4" width="4.2" height="14.9" fill="#3fb68b"/><line x1="1055.7" y1="453.1" x2="1055.7" y2="482.9" stroke="#3fb68b" stroke-width="1"/><rect x="1053.6" y="457.5" width="4.2" height="23.9" fill="#3fb68b"/><line x1="1062.6" y1="428.9" x2="1062.6" y2="461.1" stroke="#3fb68b" stroke-width="1"/><rect x="1060.5" y="432.9" width="4.2" height="24.6" fill="#3fb68b"/><line x1="1069.5" y1="404.7" x2="1069.5" y2="437.7" stroke="#3fb68b" stroke-width="1"/><rect x="1067.4" y="407.8" width="4.2" height="25.1" fill="#3fb68b"/><line x1="1076.4" y1="383.8" x2="1076.4" y2="410.2" stroke="#3fb68b" stroke-width="1"/><rect x="1074.3" y="387.4" width="4.2" height="20.4" fill="#3fb68b"/><line x1="1083.3" y1="377.3" x2="1083.3" y2="391.9" stroke="#3fb68b" stroke-width="1"/><rect x="1081.2" y="380.1" width="4.2" height="7.3" fill="#3fb68b"/><line x1="1090.2" y1="368.7" x2="1090.2" y2="383.7" stroke="#3fb68b" stroke-width="1"/><rect x="1088.1" y="374.4" width="4.2" height="5.7" fill="#3fb68b"/><line x1="1097.1" y1="370.9" x2="1097.1" y2="380.0" stroke="#d05f5f" stroke-width="1"/><rect x="1095.0" y="374.4" width="4.2" height="1.6" fill="#d05f5f"/><line x1="1104.0" y1="372.9" x2="1104.0" y2="385.8" stroke="#d05f5f" stroke-width="1"/><rect x="1101.9" y="376.0" width="4.2" height="6.7" fill="#d05f5f"/><line x1="8" y1="375.6" x2="1104" y2="375.6" stroke="#d6b04a" stroke-width="1.4" data-annotation-id="SET-STR-RAW-2-1258-short:entry:2556.674769622984" data-produced-by="rule:SET-STR-RAW-2-1258-short-LOC" data-detector-version="1.1.0" data-evidence="DERIVED"/><text x="14" y="376.4" fill="#d6b04a" font-family="monospace" font-size="11">Entry 2556.67 [DERIVED]</text><line x1="8" y1="369.4" x2="1104" y2="369.4" stroke="#d05f5f" stroke-width="1.4" data-annotation-id="SET-STR-RAW-2-1258-short:stop:2567.6809972763176" data-produced-by="rule:SET-STR-RAW-2-1258-short-INVAL" data-detector-version="1.1.0" data-evidence="INFERRED"/><text x="14" y="364.4" fill="#d05f5f" font-family="monospace" font-size="11">Stop loss 2567.68 [INFERRED]</text><line x1="8" y1="394.0" x2="1104" y2="394.0" stroke="#3fb68b" stroke-width="1.4" stroke-dasharray="3 3" data-annotation-id="SET-STR-RAW-2-1258-short:target:2524.293433985726" data-produced-by="feature:FTR-LEVELS" data-detector-version="1.1.0" data-evidence="DERIVED"/><text x="14" y="400.4" fill="#3fb68b" font-family="monospace" font-size="11">Target 1 2524.29 [DERIVED]</text><line x1="8" y1="411.8" x2="1104" y2="411.8" stroke="#3fb68b" stroke-width="1.4" stroke-dasharray="3 3" data-annotation-id="SET-STR-RAW-2-1258-short:target:2492.8439907391976" data-produced-by="feature:FTR-LEVELS" data-detector-version="1.1.0" data-evidence="DERIVED"/><text x="14" y="412.4" fill="#3fb68b" font-family="monospace" font-size="11">Target 2 2492.84 [DERIVED]</text><line x1="8" y1="375.6" x2="1104" y2="375.6" stroke="#a05fd0" stroke-width="1.4" stroke-dasharray="6 4" data-annotation-id="SET-STR-RAW-2-1258-short:invalidation:2556.674769622984" data-produced-by="rule:SET-STR-RAW-2-1258-short-INVAL" data-detector-version="1.1.0" data-evidence="SOURCE"/><text x="14" y="388.4" fill="#a05fd0" font-family="monospace" font-size="11">Invalidation 2556.67 [SOURCE]</text><text x="8" y="22" fill="#e6e8ec" font-family="monospace" font-size="15">FIXTUREB · 1h · <tspan fill="#d05f5f">SHORT</tspan></text><text x="8" y="40" fill="#8b8f98" font-family="monospace" font-size="11">SET-STR-RAW-2-1258-short · score n/a — This is a decision score, not a probability.</text><text x="1192" y="22" text-anchor="end" fill="#8b8f98" font-family="monospace" font-size="11">ADVISORY ONLY — AsA never executes</text><text x="8" y="667" fill="#8b8f98" font-family="monospace" font-size="10">5 annotations, each traceable to a rule/feature + source line · decision window ends 2026-09-26T03:00Z open · knowable 2026-09-26T04:00Z · fp 041e75a447d409 · snapshot VERIFIED</text></svg>